<?xml version="1.0" encoding="UTF-8" standalone="no"?>
<svg
   id="aaafdec0-95c8-49a3-a8f8-64216c6da511"
   data-name="Layer 1"
   width="1013.44925"
   height="610.28138"
   viewBox="0 0 1013.44925 610.28138"
   version="1.1"
   sodipodi:docname="address_image.svg"
   inkscape:version="1.3 (0e150ed, 2023-07-21)"
   xmlns:inkscape="http://www.inkscape.org/namespaces/inkscape"
   xmlns:sodipodi="http://sodipodi.sourceforge.net/DTD/sodipodi-0.dtd"
   xmlns="http://www.w3.org/2000/svg"
   xmlns:svg="http://www.w3.org/2000/svg">
  <defs
     id="defs29" />
  <sodipodi:namedview
     id="namedview29"
     pagecolor="#ffffff"
     bordercolor="#000000"
     borderopacity="0.25"
     inkscape:showpageshadow="2"
     inkscape:pageopacity="0.0"
     inkscape:pagecheckerboard="0"
     inkscape:deskcolor="#d1d1d1"
     inkscape:zoom="0.38670687"
     inkscape:cx="505.55088"
     inkscape:cy="305.14069"
     inkscape:window-width="1280"
     inkscape:window-height="449"
     inkscape:window-x="0"
     inkscape:window-y="23"
     inkscape:window-maximized="0"
     inkscape:current-layer="aaafdec0-95c8-49a3-a8f8-64216c6da511" />
  <title
     id="title1">message sent</title>
  <path
     d="m 517.46903,348.39394 8.69,-1.50249 c 0.83364,-0.14609 1.66125,-0.324 2.494,-0.47508 a 71.336,71.336 0 0 1 45.5486,-131.50307 l -11.39011,27.10321 26.98563,-23.563 a 1.218,1.218 0 0 1 0.18422,0.0616 71.33974,71.33974 0 0 1 43.58826,90.9909 c -0.45144,1.285 -0.98885,2.51195 -1.50455,3.75391 7.6183,-3.82782 14.92646,-8.28382 20.88623,-13.98942 12.0656,-11.56183 18.67644,-27.51658 26.064,-47.17321 14.63606,-38.95254 28.72732,-78.46891 42.25628,-118.07142 A 71.3081,71.3081 0 0 1 687.93326,47.67055 c 0.7249,-2.05935 1.56465,-4.04238 2.45474,-5.98995 0.22249,-0.4874 0.447,-0.9717 0.67939,-1.45213 0.90457,-1.86718 1.85953,-3.6966 2.90752,-5.45233 0.1713,-0.28783 0.36322,-0.55717 0.53817,-0.84188 q 1.3682,-2.22051 2.88642,-4.30958 c 0.37679,-0.52289 0.75233,-1.04433 1.142,-1.5548 1.1468,-1.49959 2.33442,-2.95877 3.58676,-4.35182 0.41848,-0.46611 0.86247,-0.90161 1.2921,-1.35568 q 1.44319,-1.52276 2.9655,-2.95359 c 0.5351,-0.50218 1.06448,-1.008 1.61362,-1.49238 0.14094,-0.12427 0.27243,-0.2599 0.41427,-0.38315 0.007,0.0091 0.0126,0.01884 0.0194,0.02782 a 71.29043,71.29043 0 0 1 91.21283,-2.04906 l -14.82139,35.27008 26.6788,-23.28279 a 70.94428,70.94428 0 0 1 2.637,84.02 c 0.0246,0.009 0.05,0.0154 0.0746,0.024 -0.29129,0.42812 -0.62211,0.81994 -0.92174,1.24042 q -0.84384,1.18376 -1.72782,2.32541 c -0.758,0.976 -1.54515,1.91928 -2.3487,2.84968 -0.60676,0.70228 -1.20477,1.41039 -1.83632,2.08593 -0.92375,0.98823 -1.89159,1.92394 -2.86581,2.85444 -0.56887,0.54275 -1.11262,1.113 -1.69761,1.63582 q -2.30032,2.05485 -4.75959,3.89945 c -0.57509,0.43071 -1.1819,0.81065 -1.76889,1.22314 -1.15113,0.80973 -2.30823,1.60756 -3.50324,2.34654 -0.74157,0.45834 -1.50281,0.87732 -2.26,1.30807 -1.09586,0.62424 -2.1995,1.229 -3.32624,1.79395 -0.79884,0.40046 -1.6035,0.78059 -2.41666,1.15106 -1.15688,0.52725 -2.32832,1.01623 -3.51208,1.48159 -0.79437,0.312 -1.58478,0.628 -2.39021,0.91171 -1.32868,0.468 -2.67688,0.87457 -4.03309,1.26378 -0.68453,0.19675 -1.358,0.42184 -2.0489,0.598 -2.03446,0.51888 -4.09156,0.96059 -6.17282,1.299 -0.39138,0.0639 -0.78982,0.088 -1.18269,0.14511 -1.72515,0.25105 -3.4594,0.45363 -5.20746,0.57739 -0.75141,0.0529 -1.50733,0.0605 -2.26195,0.0899 -1.41291,0.055 -2.82726,0.083 -4.24933,0.0526 -0.82938,-0.0176 -1.65831,-0.0605 -2.48986,-0.10741 q -2.077,-0.11751 -4.15782,-0.36176 c -0.82024,-0.095 -1.63812,-0.18928 -2.45889,-0.31355 -1.48646,-0.22552 -2.97062,-0.52039 -4.45549,-0.84334 -0.0973,-0.0212 -0.19509,-0.034 -0.29259,-0.0556 q -8.56536,25.06146 -17.44789,50.01587 a 71.29094,71.29094 0 0 1 103.37415,8.52122 l -24.66417,27.27645 33.39412,-13.33085 a 71.095,71.095 0 0 1 2.8542,54.309 69.97845,69.97845 0 0 1 -9.06181,17.53221 71.31173,71.31173 0 0 1 -128.85331,-31.287 c -0.6274,1.67621 -1.23358,3.37345 -1.8626,5.048 -6.51931,17.34128 -14.62973,38.92242 -30.91775,54.52536 -11.04071,10.57571 -24.62471,17.28531 -37.65746,22.95795 q -12.72993,5.54013 -25.79872,10.244 a 71.49658,71.49658 0 0 1 -31.92642,10.17492 c -13.74712,3.81879 -27.66762,7.00665 -41.71846,9.46794 l -8.76116,1.51026 c -7.87355,1.34879 -15.947,2.73747 -23.95967,4.33745 1.15372,0.3423 2.30893,0.66887 3.45662,1.0728 a 71.3628,71.3628 0 0 1 47.63936,69.42824 l -54.92523,16.85876 49.70077,7.89256 a 71.373,71.373 0 0 1 -118.92554,21.10594 q 0.75671,2.53542 1.51959,5.0629 c 1.00888,3.34851 2.00975,6.67808 2.97116,9.976 13.07817,44.93813 7.44978,80.28759 -15.85121,99.53231 l -12.64368,-15.3051 c 22.678,-18.73373 15.64211,-57.33563 9.43367,-78.6821 -0.9437,-3.2384 -1.92909,-6.50939 -2.92025,-9.79841 -8.518,-28.29779 -18.17419,-60.37313 -5.66787,-89.84773 18.84821,-44.42434 73.17054,-53.72595 116.81937,-61.1997 z"
     fill="#f2f2f2"
     id="path1" />
  <path
     d="m 734.7997,116.73684 c -2.38043,4.89641 -0.18569,11.34568 2.74672,15.73434 2.93242,4.38866 6.71361,8.24091 8.02285,13.74806 1.17383,4.93758 0.10608,10.26267 -1.27442,15.11355 -1.38051,4.85088 -3.09689,9.68736 -3.2392,14.84122 -0.14231,5.15386 1.78143,10.84543 5.61026,12.58531 3.92904,1.78542 8.57406,-1.02037 12.35844,1.21154 4.9293,2.90715 6.0463,12.97198 11.42011,14.01542 3.30713,0.64215 6.3721,-2.99324 7.29637,-7.0702 0.92428,-4.07697 0.26044,-8.42859 -0.40769,-12.5852 -1.83062,-11.38866 -3.66124,-22.77731 -5.49185,-34.16597 -1.52318,-9.476 -3.04636,-18.952 -4.56953,-28.428 -0.90942,-5.65769 -1.98846,-11.70956 -5.34204,-15.61583 -4.09788,-4.77321 -10.27466,-4.88668 -15.83469,-4.60062 -5.10837,0.26282 -10.42293,0.70598 -14.8701,3.90382 -4.44717,3.19784 -7.71367,9.99526 -6.17479,16.17697 1.43732,-4.35077 5.73162,-6.7915 9.2496,-5.25714"
     fill="#2f2e41"
     id="path2854-5"
     style="fill:#000000;fill-opacity:1;stroke-width:0.888085" />
  <path
     d="m 734.44285,111.56496 c 2.38043,4.89641 0.18569,11.34568 -2.74672,15.73434 -2.93242,4.38866 -6.71361,8.24091 -8.02285,13.74806 -1.17383,4.93758 -0.10608,10.26267 1.27442,15.11355 1.38051,4.85088 3.09689,9.68736 3.2392,14.84122 0.14231,5.15386 -1.78143,10.84543 -5.61026,12.58531 -3.92904,1.78542 -8.57406,-1.02037 -12.35844,1.21154 -4.9293,2.90715 -6.0463,12.97199 -11.42011,14.01543 -3.30713,0.64215 -6.3721,-2.99325 -7.29637,-7.07021 -0.92428,-4.07697 -0.26044,-8.42859 0.40769,-12.5852 1.83062,-11.38866 3.66124,-22.77731 5.49185,-34.16597 1.52318,-9.476 3.04636,-18.952 4.56953,-28.428 0.90942,-5.65769 1.98846,-11.70956 5.34204,-15.61583 4.09788,-4.773209 10.27466,-4.886679 15.83469,-4.600619 5.10837,0.26282 10.42293,0.70598 14.8701,3.903819 4.44717,3.19784 7.71367,9.99526 6.17479,16.17697 -1.43732,-4.35077 -5.73162,-6.7915 -9.2496,-5.25714"
     fill="#2f2e41"
     id="path2854"
     style="fill:#000000;fill-opacity:1;stroke-width:0.888085" />
  <path
     d="M766.64644,753.85087H381.81268a47.58312,47.58312,0,0,1-47.58312-47.58312V529.956a18.85083,18.85083,0,0,1,5.88232-13.68106L544.0357,322.97213a43.88936,43.88936,0,0,1,60.38773,0L798.854,507.27609a49.27354,49.27354,0,0,1,15.37558,35.76045V706.26775A47.58312,47.58312,0,0,1,766.64644,753.85087Z"
     transform="translate(-93.27537 -144.85931)"
     fill="#3f3d56"
     id="path2" />
  <path
     d="M240.95419,387.99156h476a0,0,0,0,1,0,0V580.25928a28.73228,28.73228,0,0,1-28.73228,28.73228H269.68647a28.73228,28.73228,0,0,1-28.73228-28.73228V387.99156a0,0,0,0,1,0,0Z"
     opacity="0.1"
     id="path3" />
  <path
     d="M333.72956,521.35087"
     transform="translate(-93.27537 -144.85931)"
     fill="none"
     stroke="#3f3d56"
     stroke-miterlimit="10"
     id="path4" />
  <rect
     x="303.45419"
     y="236.49156"
     width="354"
     height="354"
     rx="26.1811"
     fill="#55198b"
     id="rect4"
     style="fill:#2522be;fill-opacity:1" />
  <polygon
     points="657.454 395.942 657.454 590.492 303.454 590.492 303.454 395.942 480.454 481.492 657.454 395.942"
     opacity="0.1"
     id="polygon4" />
  <path
     d="M573.72956,637.35087l-226.7938-109.617a9.20185,9.20185,0,0,0-13.2062,8.28487V724.61858a28.73228,28.73228,0,0,0,28.73228,28.73229H784.99728a28.73228,28.73228,0,0,0,28.73228-28.73229v-185.369a11.22869,11.22869,0,0,0-16.11507-10.10975Z"
     transform="translate(-93.27537 -144.85931)"
     fill="#3f3d56"
     id="path5" />
  <rect
     x="333.95419"
     y="268.99156"
     width="99"
     height="14"
     fill="#f2f2f2"
     id="rect5" />
  <rect
     x="325.95419"
     y="319.99156"
     width="294"
     height="8"
     fill="#f2f2f2"
     id="rect6" />
  <rect
     x="325.95419"
     y="346.99156"
     width="294"
     height="8"
     fill="#f2f2f2"
     id="rect7" />
  <rect
     x="325.95419"
     y="373.99156"
     width="294"
     height="8"
     fill="#f2f2f2"
     id="rect8" />
  <line
     x1="60.95419"
     y1="608.49156"
     x2="884.95419"
     y2="608.49156"
     fill="none"
     stroke="#3f3d56"
     stroke-miterlimit="10"
     id="line8" />
  <path
     d="M93.27537,630.2124c0,58.96027,36.98858,106.67017,82.69935,106.67017"
     transform="translate(-93.27537 -144.85931)"
     fill="#46455b"
     id="path8" />
  <path
     d="M175.97472,736.88257c0-59.62274,41.2771-107.86871,92.28767-107.86871"
     transform="translate(-93.27537 -144.85931)"
     fill="#55198b"
     id="path9" />
  <path
     d="M123.2389,635.55725c0,56.006,23.58692,101.32532,52.73582,101.32532"
     transform="translate(-93.27537 -144.85931)"
     fill="#55198b"
     id="path10" />
  <path
     d="M175.97472,736.88257c0-76.18461,47.7099-137.83224,106.67016-137.83224"
     transform="translate(-93.27537 -144.85931)"
     fill="#46455b"
     id="path11" />
  <path
     d="M158.57691,737.63461s11.72813-.36122,15.26269-2.87813,18.04081-5.52225,18.91765-1.48567,17.6252,20.07611,4.3842,20.18291-30.76619-2.06249-34.29395-4.21139S158.57691,737.63461,158.57691,737.63461Z"
     transform="translate(-93.27537 -144.85931)"
     fill="#a8a8a8"
     id="path12" />
  <path
     d="M197.37775,752.04857c-13.241.10684-30.76618-2.06247-34.29395-4.21138-2.68658-1.6365-3.75715-7.50866-4.11536-10.21785-.24807.01067-.39153.01526-.39153.01526s.74283,9.45882,4.2706,11.60772,21.053,4.31822,34.29394,4.21138c3.82216-.03082,5.14239-1.39069,5.0699-3.40477C201.68037,751.26579,200.22263,752.02564,197.37775,752.04857Z"
     transform="translate(-93.27537 -144.85931)"
     opacity="0.2"
     id="path13" />
  <path
     d="M812.98846,307.62988c-.601,5.35454-4.68512,9.66782-6.19838,14.83911-2.27768,7.7835,1.66077,16.13589,7.04821,22.19775a49.15912,49.15912,0,0,0,34.23364,16.25457,14.60026,14.60026,0,0,0,5.66011-.61688,12.11641,12.11641,0,0,0,4.30628-2.94292c4.05725-4.07387,6.23518-9.71852,7.10314-15.40222s.53065-11.47415.19125-17.21371a9.72062,9.72062,0,0,0-.636-3.472,8.89613,8.89613,0,0,0-2.23473-2.74725,52.06975,52.06975,0,0,0-9.58988-6.96645,11.00876,11.00876,0,0,1-4.01838-3.07487,9.93708,9.93708,0,0,1-1.24216-3.68133l-1.05945-5.39888a10.60905,10.60905,0,0,0-1.55586-4.37644c-1.8716-2.52476-5.4517-2.86835-8.5921-2.99154L824.899,291.5855c-3.57876-.14039-8.29422-1.16664-11.78788-.46381-3.26239.65631-2.17872,3.66262-1.58611,6.4A46.26659,46.26659,0,0,1,812.98846,307.62988Z"
     transform="translate(-93.27537 -144.85931)"
     fill="#a0616a"
     id="path14" />
  <path
     d="M812.98846,307.62988c-.601,5.35454-4.68512,9.66782-6.19838,14.83911-2.27768,7.7835,1.66077,16.13589,7.04821,22.19775a49.15912,49.15912,0,0,0,34.23364,16.25457,14.60026,14.60026,0,0,0,5.66011-.61688,12.11641,12.11641,0,0,0,4.30628-2.94292c4.05725-4.07387,6.23518-9.71852,7.10314-15.40222s.53065-11.47415.19125-17.21371a9.72062,9.72062,0,0,0-.636-3.472,8.89613,8.89613,0,0,0-2.23473-2.74725,52.06975,52.06975,0,0,0-9.58988-6.96645,11.00876,11.00876,0,0,1-4.01838-3.07487,9.93708,9.93708,0,0,1-1.24216-3.68133l-1.05945-5.39888a10.60905,10.60905,0,0,0-1.55586-4.37644c-1.8716-2.52476-5.4517-2.86835-8.5921-2.99154L824.899,291.5855c-3.57876-.14039-8.29422-1.16664-11.78788-.46381-3.26239.65631-2.17872,3.66262-1.58611,6.4A46.26659,46.26659,0,0,1,812.98846,307.62988Z"
     transform="translate(-93.27537 -144.85931)"
     opacity="0.1"
     id="path15" />
  <path
     d="M886.17655,548.64069q-2.445,26.80831-4.88995,53.60833c-1.276,14.06068-2.5767,28.179-5.07928,42.05853-.86442,4.78292-1.877,9.54118-3.0789,14.25824-3.34228,13.09747-8.191,25.89859-9.75518,39.32541-.04939.38689-.09054.782-.13169,1.17721a34.18858,34.18858,0,0,1-1.67117,8.72615c-.78207,2.04982-1.984,3.91855-2.83189,5.9437-1.6876,4.05025-1.90989,8.52859-2.11569,12.91633a55.682,55.682,0,0,0-19.17287-6.55283c-3.25174-.48572-6.87389-.83146-9.08837-3.26-2.45324-2.68372-2.18156-6.7916-1.77-10.39732q1.93871-16.79373,3.86916-33.571a87.49508,87.49508,0,0,1,2.44495-14.25824c.44458-1.55591.97964-3.08709,1.523-4.61827.74911-2.10745,1.50646-4.21491,2.07449-6.38a76.83184,76.83184,0,0,0,1.71232-10.62784c1.32537-11.2617,2.92243-22.49872,4.32192-33.75218l.07411-.5927c2.09921-17.05722,3.69627-34.19674,3.23527-51.37742-.06588-2.54373-.1729-5.08752-.33755-7.63949-.23048-3.69627-.568-5.65554,2.49439-7.9688,3.38344-2.552,7.837-4.33841,11.70622-6.00957,2.08278-.90553,25.01778-9.04722,25.55289-7.26079a44.68761,44.68761,0,0,1,1.67936,11.70621A130.253,130.253,0,0,1,886.17655,548.64069Z"
     transform="translate(-93.27537 -144.85931)"
     fill="#605d82"
     id="path16" />
  <path
     d="M876.20732,644.30755c-.86442,4.78292-1.877,9.54118-3.0789,14.25824-3.34228,13.09747-8.191,25.89859-9.75518,39.32541-.04939.38689-.09054.782-.13169,1.17721-10.22448-14.604-18.83537-30.31111-28.81283-45.0715.74911-2.10745,1.50646-4.21491,2.07449-6.38a76.83184,76.83184,0,0,0,1.71232-10.62784c1.32537-11.2617,2.92243-22.49872,4.32192-33.75218l.07411-.5927a34.96361,34.96361,0,0,0,2.49434,6.92329c6.70106,13.61616,22.62218,20.4983,30.40989,33.52989Q875.87387,643.70251,876.20732,644.30755Z"
     transform="translate(-93.27537 -144.85931)"
     opacity="0.1"
     id="path17" />
  <path
     d="M793.24243,524.578c.3377,10.92082,2.08588,21.7431,3.83044,32.529l3.59945,22.25369c1.97,12.17951,4.021,24.60723,9.78472,35.516,4.31159,8.1603,10.52352,15.12375,16.14317,22.44494,13.81538,17.99845,24.19409,38.38691,37.2941,56.91253,3.80771,5.38475,9.25042,11.20813,15.74888,10.08377,4.265-.73794,7.36273-4.28887,10.71526-7.02668,3.95252-3.22779,8.71623-5.58965,11.82613-9.63558s3.71922-10.77111-.49409-13.65018a22.22787,22.22787,0,0,0-4.82237-1.9732c-6.5315-2.484-10.75907-8.86224-13.449-15.31167s-4.31969-13.38425-7.9041-19.38282c-7.78691-13.03154-23.71031-19.91338-30.413-33.53436-3.75408-7.62892-4.11187-16.42192-4.39882-24.91964l-.7315-21.66209c-.08-2.36887-.14258-4.83257.82039-6.99836,2.56385-5.76625,10.30495-6.30333,16.573-7.03435a56.69225,56.69225,0,0,0,20.31009-6.40789c3.61023-1.94953,7.1373-4.4348,9.06867-8.05477,1.76206-3.30264,2.00523-7.17632,2.21186-10.91391l2.17031-39.25781c.18672-3.37751.357-6.86976-.8334-10.036-2.98907-7.95048-13.02854-10.54847-21.51387-10.16914-15.79.70588-30.36663,7.49823-45.25462,12.08517a115.05456,115.05456,0,0,1-11.21741,2.92585c-3.34132.67053-7.38513.39231-10.57188,1.46666-5.66728,1.91063-5.52338,14.30438-6.327,19.44547A163.69345,163.69345,0,0,0,793.24243,524.578Z"
     transform="translate(-93.27537 -144.85931)"
     fill="#605d82"
     id="path18" />
  <path
     d="M877.49921,705.9639c1.39237,1.40419,1.8475,3.46135,2.2102,5.40529a184.59886,184.59886,0,0,1,3.126,32.69239,5.33848,5.33848,0,0,0,.5884,2.9621,3.72149,3.72149,0,0,0,1.53793,1.23594c4.02424,1.918,8.69516-.755,12.04847-3.69244,6.21628-5.44542,11.47628-12.75447,11.82936-21.011a48.77937,48.77937,0,0,1,.223-6.37215c.546-3.10838,2.36113-5.8167,3.96049-8.53738a72.05271,72.05271,0,0,0,6.54513-14.67185c.61137-1.92332,1.018-4.34506-.48909-5.68732a5.48164,5.48164,0,0,0-1.79152-.93134L899.109,680.60643c-1.57529-.5849-5.49516,9.4843-6.11731,10.5851-1.52188,2.69268-3.03512,4.2213-6.08832,4.84284-3.1166.63444-6.82662-.27592-9.73466,1.279C872.24945,699.94363,874.71389,703.15491,877.49921,705.9639Z"
     transform="translate(-93.27537 -144.85931)"
     fill="#535070"
     id="path19" />
  <path
     d="M849.44929,712.17769a5.57414,5.57414,0,0,0-1.38369-1.75429,6.25861,6.25861,0,0,0-2.791-.94819c-3.46078-.58762-7.56272-.97454-9.95133,1.59778-2.2394,2.41165-1.85441,6.34037-3.72663,9.047-.59269.85684-1.39574,1.563-1.90961,2.4693a9.30993,9.30993,0,0,0-.83775,4.42893c-.09663,4.19525-.19311,8.39762.09669,12.584.24285,3.508.83417,7.184,3.02788,9.93227,3.52105,4.4111,9.87152,5.04539,15.50833,5.33169l4.56525.23187a8.91225,8.91225,0,0,0,3.74132-.343,6.15883,6.15883,0,0,0,3.22709-3.55063c2.37637-5.90648-1.387-12.27007-3.70516-18.19964C852.64623,726.18925,853.12467,718.6215,849.44929,712.17769Z"
     transform="translate(-93.27537 -144.85931)"
     fill="#535070"
     id="path20" />
  <path
     d="M811.66579,277.45928a3.77334,3.77334,0,0,1,.25666-1.76012c.66866-1.18232,2.41466-.86054,3.73175-.52848,5.29676,1.33539,10.87785.1266,16.33143.43857s11.59665,3.03834,12.69318,8.38964a39.82421,39.82421,0,0,0,10.06862-10.34535c1.51355-2.265,2.83282-4.85939,2.62677-7.57576-.29719-3.918-3.58443-6.8481-6.62819-9.33288l-9.07324-7.407a13.67271,13.67271,0,0,0-4.06246-2.58282c-2.09521-.716-4.38006-.37486-6.59423-.37344-6.60471.00423-13.64661-3.00157-19.5207.01793-2.45374,1.26131-4.30061,3.42276-6.081,5.53032l-8.098,9.5859a5.12052,5.12052,0,0,0-1.29446,2.19511c-.2304,1.17009.3705,2.32485.58019,3.49882.38251,2.14149-.53984,4.427.16927,6.48355,1.17723,3.41413,5.32258,3.89742,7.85686,5.8547.94454.72949,2.42487,3.20174,3.55025,3.17155C810.209,282.66505,811.613,279.03684,811.66579,277.45928Z"
     transform="translate(-93.27537 -144.85931)"
     fill="#3f3d56"
     id="path21" />
  <circle
     cx="732.13079"
     cy="134.92476"
     r="25.93155"
     fill="#a0616a"
     id="circle21" />
  <path
     d="M831.47979,336.53574a12.56174,12.56174,0,0,0-12.22932-8.41582,3.7289,3.7289,0,0,1-2.25575-.28522,3.10914,3.10914,0,0,1-.92709-1.1591,45.299,45.299,0,0,1-3.781-8.93851c-.41369-1.37256-.97941-2.9907-2.36783-3.34755a3.19884,3.19884,0,0,0-3.01844,1.313,26.58981,26.58981,0,0,1-2.1574,2.71145c-3.2614,2.91612-9.0427.25824-12.50431,2.93364-.56543.437-1.03207.99681-1.62594,1.39432a7.59368,7.59368,0,0,1-1.904.81631,182.62134,182.62134,0,0,0-19.62613,7.68676c2.30257,13.86681,4.662,27.97538,10.05929,40.95459,2.56849,6.17666,5.47923,12.226,7.536,18.59135,4.55722,14.10366,4.75926,29.1939,4.81041,44.01546.035,10.14406-.01542,20.50469-3.29738,30.10323a28.41193,28.41193,0,0,0-1.85335,6.61282c-.19821,2.28725.46757,4.80916,2.3208,6.16427a7.93825,7.93825,0,0,0,3.58127,1.25787c5.68676.83443,11.4198-.679,17.01925-1.97579,15.00822-3.47572,30.3148-5.46459,45.592-7.44823l25.59985-3.324a14.86214,14.86214,0,0,0,5.29648-1.36887c4.68448-2.56485,5.1292-9.61132,2.22012-14.09017-1.39464-2.14721-3.36235-3.90874-4.53416-6.18523s-1.2716-5.45988.7457-7.03661c4.10347-3.20729,2.87946-9.15788,3.07517-14.36239q.82083-21.82872-.2221-43.67449a86.96161,86.96161,0,0,1-.14455-9.058,80.21449,80.21449,0,0,1,2.82335-15.11485l7.77873-30.628c-2.03207-3.21114-5.9229-5.24845-9.6087-6.17343s-7.52466-1.19721-11.15448-2.322c-7.43628-2.30427-14.05665-8.152-21.82266-7.607a3.96194,3.96194,0,0,0-1.69137.413c-1.75152.99225-1.47414,3.51636-1.5861,5.52629-.2477,4.44687-3.51839,8.16344-7.13031,10.76921s-7.737,4.50583-11.05439,7.47755A4.9332,4.9332,0,0,0,831.47979,336.53574Z"
     transform="translate(-93.27537 -144.85931)"
     fill="#3f3d56"
     id="path22"
     style="fill:#c3c3d5;fill-opacity:1" />
  <path
     d="M728.73036,365.58731a30.61494,30.61494,0,0,1-5.45448,2.80657,17.92956,17.92956,0,0,0-5.225,2.53569,8.18837,8.18837,0,0,0-1.81691,2.24485,9.98315,9.98315,0,0,0,9.20559,14.874,20.03948,20.03948,0,0,0,6.80747-2.02969L750.537,378.0931c3.09565-1.34144,6.4396-2.91352,7.90276-5.95353a1.38319,1.38319,0,0,0,.17808-.945,1.56222,1.56222,0,0,0-.75125-.78974,40.867,40.867,0,0,1-10.64992-10.04237c-.75039-1.01881-1.66855-3.42442-2.72925-4.03525C740.616,354.09772,731.82906,363.57634,728.73036,365.58731Z"
     transform="translate(-93.27537 -144.85931)"
     fill="#a0616a"
     id="path23" />
  <path
     d="M924.25781,359.0838l6.74313,7.70291c1.44763,1.65367,2.89681,3.30926,4.21639,5.06681a59.14092,59.14092,0,0,1,7.723,14.54934c1.46575,3.8462,2.6823,7.94307,2.17011,12.02711a29.422,29.422,0,0,1-1.68654,6.11657,76.14173,76.14173,0,0,1-4.582,11.03557,62.86551,62.86551,0,0,1-5.15612,7.72692,180.44049,180.44049,0,0,1-17.09361,19.55227c-2.3053,2.28206-3.27208,5.972-4.27559,9.0567-1.851,5.68971-6.25533,10.12119-10.51445,14.32343a29.23729,29.23729,0,0,1-4.51458,3.885,14.70454,14.70454,0,0,1-8.21614,2.33991,9.01809,9.01809,0,0,1-3.70077-.76608c-2.91461-1.38405-4.39595-4.75441-4.69958-7.96663a16.94606,16.94606,0,0,1,1.41791-8.52067c3.86944-8.57162,13.806-12.286,20.8296-18.54016,4.11852-3.66733,7.268-8.27388,10.37423-12.83053a44.3482,44.3482,0,0,0,5.24664-9.19651c1.56856-4.1853.958-9.14,2.32838-13.39438.57924-1.79831,1.60907-3.42206,2.23191-5.20575s.77965-3.90108-.3099-5.44457a7.91291,7.91291,0,0,0-3.053-2.23512c-4.48682-2.27727-9.512-5.208-10.37073-10.16587a10.89135,10.89135,0,0,1,2.009-7.7643,32.34965,32.34965,0,0,1,5.658-5.9298C918.99542,362.77078,922.29542,360.819,924.25781,359.0838Z"
     transform="translate(-93.27537 -144.85931)"
     fill="#a0616a"
     id="path24" />
  <path
     d="M724.40132,376.33985c-1.19067-2.40519-2.67924-4.85908-5.08185-6.055a9.3643,9.3643,0,0,0-7.38681-.031,27.77387,27.77387,0,0,0-6.48258,3.92l-5.81223,4.2845a14.30746,14.30746,0,0,0-3.45068,3.18519,13.445,13.445,0,0,0-1.79721,4.9309,35.24648,35.24648,0,0,0-.91381,12.19665c.92237,6.55436,4.874,12.27645,9.2235,17.26569,2.71786,3.11763,6.07342,6.26381,10.20727,6.39679,1.78442.0574,3.76894-.64595,4.51109-2.26973a5.66071,5.66071,0,0,0,.4029-2.02241c.44655-7.31074-2.16868-14.45162-5.21837-21.11087a13.53562,13.53562,0,0,1-1.68258-5.67278,1.55649,1.55649,0,0,1,.24848-.95008,1.60487,1.60487,0,0,1,.99225-.48447c4.17406-.82563,11.36369,2.417,14.29187-2.21832C728.35084,384.69994,725.7503,379.06485,724.40132,376.33985Z"
     transform="translate(-93.27537 -144.85931)"
     fill="#a0616a"
     id="path25" />
  <path
     d="M810.30585,269.2996a3.77334,3.77334,0,0,1,.25665-1.76012c.66866-1.18232,2.41467-.86054,3.73176-.52848,5.29675,1.33539,10.87784.1266,16.33142.43857s11.59665,3.03834,12.69319,8.38964a39.82421,39.82421,0,0,0,10.06862-10.34535c1.51354-2.265,2.83281-4.85939,2.62676-7.57576-.29719-3.91795-3.58443-6.84809-6.62818-9.33288l-9.07325-7.407a13.67243,13.67243,0,0,0-4.06246-2.58281c-2.09521-.716-4.38006-.37487-6.59423-.37345-6.60471.00424-13.64661-3.00156-19.52069.01793-2.45374,1.26131-4.30061,3.42276-6.081,5.53033l-8.098,9.5859a5.12052,5.12052,0,0,0-1.29446,2.1951c-.2304,1.17009.3705,2.32485.5802,3.49883.38251,2.14149-.53985,4.427.16926,6.48354,1.17724,3.41413,5.32258,3.89742,7.85687,5.85471.94453.72948,2.42486,3.20174,3.55024,3.17154C808.849,274.50537,810.25305,270.87716,810.30585,269.2996Z"
     transform="translate(-93.27537 -144.85931)"
     fill="#3f3d56"
     id="path26"
     style="fill:#060508;fill-opacity:1" />
  <path
     d="M755.22934,340.36408a10.54147,10.54147,0,0,0-2.71427,2.52676c-.95075,1.43748-1.144,3.25221-1.96067,4.76986-1.74763,3.24756-5.83525,4.40291-8.38524,7.06719a2.63985,2.63985,0,0,0-.80573,1.38233,3.08046,3.08046,0,0,0,.685,1.98968l12.2967,19.33156c4.09421.36049,8.022-2.20459,12.11795-1.86409,1.52934.12714,3.09428.65537,4.56084.20344a13.07872,13.07872,0,0,0,2.92677-1.78995c2.44364-1.54511,5.69824-1.72514,7.74839-3.76367,1.96752-1.95638,2.21856-5.01729,2.1951-7.79183a31.32083,31.32083,0,0,0-.731-7.16784c-1.81038-7.4202-7.4854-13.11448-11.04309-19.6874-1.732-3.2-2.67447-5.07329-6.34043-2.87609C762.09468,334.90259,758.69733,337.828,755.22934,340.36408Z"
     transform="translate(-93.27537 -144.85931)"
     fill="#3f3d56"
     id="path27"
     style="fill:#c2c2d6;fill-opacity:1" />
  <path
     d="M904.57078,330.58814a28.76856,28.76856,0,0,1,6.18619,5.41859c1.8733,2.41546,2.93429,5.37159,4.73378,7.84253,1.74423,2.39506,4.11855,4.25,6.097,6.45546,3.00044,3.34471,5.03276,7.42523,7.02849,11.451a171.06454,171.06454,0,0,1-15.90617,17.97709,5.13016,5.13016,0,0,1-2.41525,1.58771,3.89625,3.89625,0,0,1-3.4144-1.392c-.8856-.92913-1.51328-2.07458-2.35992-3.03935a12.16158,12.16158,0,0,0-7.51787-3.636,51.63193,51.63193,0,0,0-8.51782-.1173,3.36749,3.36749,0,0,1-1.81916-.30572,3.05586,3.05586,0,0,1-.99258-1.13851c-3.32929-5.66523-2.25842-12.77808-1.08383-19.24332l2.69526-14.83537a33.29654,33.29654,0,0,1,2.24318-8.2452c1.02073-2.18173,3.30366-5.88142,6.11056-5.22828C898.46782,324.79784,902.19025,328.87587,904.57078,330.58814Z"
     transform="translate(-93.27537 -144.85931)"
     fill="#3f3d56"
     id="path28"
     style="fill:#c2c2d6;fill-opacity:1" />
  <ellipse
     cx="317.95419"
     cy="242.06613"
     rx="41"
     ry="41.07457"
     fill="#fff"
     id="ellipse28" />
  <path
     d="M411.22956,338.85087a49,49,0,1,0,49,49A49.14406,49.14406,0,0,0,411.22956,338.85087Zm-10.05913,75.12548-25.1125-25.11251,7.04374-7.04374L401.194,399.91241l38.187-38.187,7.04375,7.04375-45.25433,45.20721Z"
     transform="translate(-93.27537 -144.85931)"
     fill="#57b894"
     id="path29"
     style="fill:#6961ff;fill-opacity:1" />
  <path
     style="fill:#000000"
     d="m 737.18707,261.63509 c -4.4537,-0.36093 -8.7239,-1.13269 -12.2553,-2.21492 -4.6721,-1.4318 -9.1276,-3.39502 -12.2601,-5.40219 -1.4985,-0.96024 -3.3339,-2.29151 -4.0019,-2.90281 -0.249,-0.22783 -0.7328,-0.63616 -1.0751,-0.90742 -0.7226,-0.57257 -2.5468,-2.51171 -3.5518,-3.77556 -2.2462,-2.82482 -3.8703,-6.03222 -4.5905,-9.06567 -0.7913,-3.333 -0.7286,-6.02335 0.2261,-9.70282 0.8019,-3.0905 2.361,-6.14504 4.3886,-8.59779 3.459,-4.18424 7.6785,-7.42794 13.09,-10.06277 0.8713,-0.42426 1.9789,-0.93001 2.4613,-1.12389 0.4823,-0.19387 1.2462,-0.50038 1.6974,-0.68112 2.9695,-1.18941 8.8476,-2.55664 12.9856,-3.02041 0.9025,-0.10114 2.0482,-0.23543 2.5462,-0.29841 1.4514,-0.18358 8.597,-0.26222 10.4676,-0.11519 2.8736,0.22586 3.6977,0.32965 6.3938,0.80525 6.6261,1.16889 12.4861,3.23582 17.2575,6.08707 1.9995,1.19486 4.5398,3.00308 5.8401,4.15715 0.8831,0.78375 3.2516,3.22134 3.7033,3.81148 2.0415,2.66648 2.1481,2.83304 3.4774,5.42921 1.0666,2.08311 1.6574,4.09184 1.9775,6.72258 0.198,1.62782 0.1403,2.61784 -0.3014,5.17301 -0.6988,4.04227 -3.1572,8.82454 -6.1407,11.9453 -2.2332,2.336 -5.2065,4.83023 -6.8588,5.75373 -5.0317,2.81229 -5.9565,3.25747 -9.1663,4.4124 -0.4668,0.16796 -1.0778,0.39755 -1.3579,0.5102 -0.7769,0.31247 -3.5242,1.0973 -4.9804,1.4228 -1.1214,0.25065 -2.3543,0.48121 -5.2044,0.97325 -3.524,0.60841 -11.2104,0.95584 -14.7678,0.66754 z m 11.4295,-1.92504 c 0.8591,-0.10413 4.2382,-0.59804 4.9792,-0.7278 0.643,-0.11258 3.1633,-0.68135 3.9042,-0.88106 0.4668,-0.12583 1.2051,-0.32437 1.6408,-0.44119 1.1846,-0.31764 3.9249,-1.27199 5.1901,-1.8075 6.7496,-2.85693 11.8234,-6.74088 15.5289,-11.88732 0.7075,-0.98255 2.5796,-4.8137 2.885,-5.90399 0.8031,-2.86655 1.0846,-5.86289 0.733,-7.80172 -0.4554,-2.51156 -0.9534,-3.91904 -2.2842,-6.45587 -1.2468,-2.37691 -2.6256,-4.1794 -4.9829,-6.51451 -2.2393,-2.21815 -2.6114,-2.53437 -4.3659,-3.70954 -1.847,-1.2371 -2.5425,-1.6577 -3.9903,-2.41314 -4.5088,-2.35247 -9.7894,-4.10173 -15.2948,-5.06657 -3.4787,-0.60965 -5.1704,-0.72452 -10.9022,-0.74026 -4.5403,-0.0125 -5.1137,0.0284 -9.6194,0.68474 -3.2053,0.46693 -7.7561,1.7705 -11.2915,3.23436 -4.8997,2.02877 -9.0437,4.7493 -12.6052,8.27525 -1.8803,1.8616 -2.6785,2.85989 -4.0323,5.04302 -1.3732,2.2143 -2.1025,3.97237 -2.6468,6.38043 -0.4477,1.98043 -0.3186,6.14441 0.2496,8.05256 1.0876,3.65209 2.3891,6.12352 4.6358,8.80303 3.6519,4.35537 8.6914,7.85195 14.8583,10.30926 4.6832,1.86614 8.7803,2.91781 13.8875,3.56483 0.5291,0.067 1.1147,0.14292 1.3014,0.16868 0.6961,0.096 11.2421,-0.047 12.2217,-0.16569 z m -7.6363,-0.50315 c -0.1722,-0.52436 -0.4066,-0.64073 -1.1196,-0.55589 -0.3191,0.038 -0.5801,0.0345 -0.5801,-0.008 0,-0.12088 0.3247,-0.62007 1.0431,-1.60353 1.3239,-1.81231 2.1255,-3.12022 2.1255,-3.46804 0,-0.68887 -0.8482,-6.44108 -1.0378,-7.03772 l -0.123,-0.38713 -0.1961,0.26115 -0.196,0.26115 -0.4738,-0.2675 c -0.3933,-0.22209 -0.5109,-0.24412 -0.6931,-0.12982 -0.3661,0.22971 -0.5619,0.16887 -0.5631,-0.17499 -6e-4,-0.17196 -0.1254,-0.58088 -0.2773,-0.9087 -0.2039,-0.43995 -0.3814,-0.64644 -0.6779,-0.78848 -0.2209,-0.10584 -0.4016,-0.23398 -0.4016,-0.28475 0,-0.0508 0.2215,-0.39472 0.4923,-0.76431 0.6958,-0.94948 1.4974,-2.56658 1.654,-3.3366 0.2572,-1.26384 0.063,-2.6999 -0.3647,-2.6999 -0.084,0 -0.3799,0.47324 -0.6564,1.05165 -0.5999,1.25455 -0.9617,1.56327 -1.8321,1.56327 -0.719,0 -1.2059,-0.23716 -1.7868,-0.87029 -0.5635,-0.61415 -0.8954,-1.31183 -0.8988,-1.88901 0,-0.60692 0.4845,-1.73665 1.0319,-2.38891 0.4157,-0.49527 0.4478,-0.57411 0.2955,-0.72708 -0.2171,-0.2181 -1.4042,-0.44634 -2.8613,-0.55011 -1.3752,-0.0979 -2.1363,0.0658 -3.5609,0.76608 -1.1314,0.55614 -2.5091,1.84196 -2.9363,2.74041 l -0.2609,0.54871 -0.197,-0.44221 c -0.2025,-0.45432 -0.878,-1.47061 -1.294,-1.94674 -0.129,-0.14756 -0.5142,-0.44905 -0.856,-0.66998 -0.5205,-0.33629 -0.7784,-0.41927 -1.5843,-0.50971 -0.5295,-0.0594 -1.4278,-0.0884 -1.9963,-0.0643 -0.9013,0.0381 -1.1296,0.0927 -1.7844,0.42659 -2.0938,1.06773 -2.9293,2.99601 -2.1699,5.00814 0.3342,0.88547 0.3782,0.84577 -1.0131,0.91303 -1.1699,0.0566 -1.2745,0.0815 -1.6713,0.39792 -0.5505,0.43906 -1.2492,1.44521 -1.4806,2.13222 -0.2613,0.77617 -0.238,2.03843 0.052,2.80992 0.4652,1.23735 1.8558,3.77952 2.3959,4.37997 0.5464,0.60734 0.6571,0.84988 0.388,0.84988 -0.2547,0 -1.1917,-0.35124 -2.0394,-0.76448 -1.5608,-0.7609 -2.4744,-1.53204 -5.0209,-4.23799 l -1.8724,-1.98962 -1.2301,-2.52874 c -2.1436,-4.40708 -2.118,-4.3435 -2.4828,-6.16873 -0.4162,-2.0819 -0.41,-3.79027 0.024,-6.65101 0.1426,-0.93981 0.1442,-0.94391 1.5808,-3.86554 0.956,-1.94411 1.2742,-2.4717 2.1942,-3.63816 1.6914,-2.14444 2.1244,-2.59473 3.8307,-3.98372 0.8803,-0.71667 1.8298,-1.49961 2.1099,-1.73987 1.129,-0.96851 4.5209,-3.08418 6.3937,-3.98812 1.0574,-0.51032 4.6173,-1.76994 6.2806,-2.22227 0.4046,-0.11002 0.8832,-0.2454 1.0637,-0.30085 0.1804,-0.0554 0.486,-0.10136 0.679,-0.10204 0.193,-6.7e-4 0.6008,-0.0774 0.9064,-0.17053 0.3055,-0.0931 0.5983,-0.16931 0.6507,-0.16931 0.2054,0 0.078,0.31493 -0.2562,0.63246 -1.3854,1.31689 -2.4998,3.62868 -2.4902,5.16585 0.01,1.23627 0.3347,2.25966 0.9981,3.12383 1.2971,1.68971 3.9746,2.83965 6.9358,2.97888 1.5735,0.074 2.3489,-0.0611 3.4449,-0.60033 0.6663,-0.32775 1.7173,-1.31776 1.6005,-1.50761 -0.041,-0.0659 -0.3743,-0.25538 -0.7415,-0.42096 -0.3672,-0.16558 -0.6963,-0.37602 -0.7314,-0.46766 -0.073,-0.19218 0.12,-0.6033 0.3713,-0.78944 0.1483,-0.10984 0.1141,-0.1961 -0.2448,-0.61735 -0.5189,-0.609 -0.5814,-1.24497 -0.1503,-1.52878 0.1469,-0.0967 0.3473,-0.14479 0.4454,-0.10697 0.1344,0.0518 0.2139,-0.0505 0.3229,-0.41597 0.08,-0.26661 0.3407,-0.69186 0.5804,-0.94501 l 0.4358,-0.46028 -0.177,-0.70781 c -0.2286,-0.91431 -0.223,-1.30184 0.034,-2.32365 0.2813,-1.11961 0.4811,-1.56866 0.9236,-2.07493 0.4556,-0.52139 0.8844,-0.75335 1.3924,-0.75335 0.6027,0 0.6541,0.14477 0.5707,1.61019 -0.084,1.47032 0.017,2.63262 0.2216,2.56681 0.073,-0.0234 0.2344,-0.23084 0.3588,-0.46094 0.1299,-0.23998 0.3123,-0.4185 0.4279,-0.41867 0.2068,-3.2e-4 0.2381,0.0524 0.3586,0.60321 0.063,0.28884 0.11,0.31595 0.4904,0.28423 0.3899,-0.0325 0.4233,-0.0641 0.4581,-0.43199 0.067,-0.7125 0.5598,-0.6672 0.8706,0.0801 0.136,0.32705 0.2013,0.38466 0.311,0.27442 0.098,-0.0986 0.1389,-0.67381 0.1389,-1.962 0,-1.68998 0.016,-1.83484 0.2263,-1.99257 0.3299,-0.24794 1.0207,-0.12255 1.5128,0.2746 0.2283,0.18428 0.5848,0.67157 0.8021,1.09636 0.3453,0.67484 0.3962,0.88728 0.4341,1.80903 0.039,0.94516 -0.042,1.62818 -0.2528,2.13823 -0.042,0.10137 -0.01,0.25485 0.076,0.34108 0.3742,0.38584 0.7665,0.99264 0.7698,1.19074 0,0.31035 0.267,0.61457 0.5289,0.61457 0.1235,0 0.3089,0.0936 0.4119,0.20792 0.3237,0.35933 0.2126,0.90441 -0.2992,1.46905 l -0.232,0.25581 0.2461,0.26313 c 0.1353,0.14473 0.246,0.36603 0.246,0.4918 0,0.30345 -0.4224,0.68009 -0.8692,0.77495 -0.4672,0.0992 -0.6537,0.32047 -0.5052,0.59934 0.2445,0.45893 1.3094,1.31574 2.1104,1.69788 l 0.8446,0.40296 1.8408,-0.0467 c 1.644,-0.0417 1.9375,-0.0802 2.7461,-0.36011 2.371,-0.82072 3.7024,-1.81894 4.417,-3.31154 0.3322,-0.69389 0.3921,-0.94014 0.3905,-1.60368 0,-1.21864 -0.2783,-2.65852 -0.6297,-3.29408 -0.6695,-1.21096 -1.1953,-1.95854 -1.7463,-2.48267 -0.3167,-0.30121 -0.5478,-0.5757 -0.5137,-0.60997 0.093,-0.0933 1.405,-0.0278 1.9863,0.0992 1.1079,0.24201 3.061,0.87854 4.7529,1.54897 2.3739,0.94067 6.4716,3.20279 7.7434,4.27466 0.3158,0.26616 0.9306,0.75994 1.3663,1.09729 2.0113,1.55741 5.034,4.80257 5.7061,6.12615 0.1208,0.23791 0.4328,0.75495 0.6933,1.14899 0.5844,0.88401 1.3279,2.47442 1.9903,4.25781 0.3845,1.03512 0.5277,1.61026 0.6085,2.44439 0.1635,1.68763 0.1316,3.04453 -0.1103,4.69429 -0.4047,2.76004 -1.3339,5.10597 -3.6549,9.22677 -0.6113,1.0854 -2.157,2.8541 -4.2723,4.88872 -1.0474,1.00741 -1.3049,1.18932 -2.5642,1.81108 -0.8946,0.44167 -1.4392,0.65177 -1.5086,0.58201 -0.069,-0.0698 0.1401,-0.45676 0.5805,-1.07207 0.3791,-0.5296 0.9037,-1.42337 1.1658,-1.98614 1.3044,-2.80048 1.4294,-3.69088 0.7275,-5.184 -0.7578,-1.61209 -1.3939,-2.07017 -3.0678,-2.20934 -1.026,-0.0853 -1.0018,-0.0306 -0.6375,-1.44257 0.2118,-0.82121 0.2235,-1.00113 0.1014,-1.56026 -0.2878,-1.31751 -1.1205,-2.35071 -2.3779,-2.95018 -0.595,-0.28371 -0.7069,-0.29675 -2.5462,-0.29675 -1.8353,0 -1.9408,0.0122 -2.2948,0.26586 -0.7398,0.53014 -1.3757,1.32812 -1.8032,2.26275 -0.2357,0.5153 -0.4561,0.93739 -0.4898,0.93796 -0.034,5.8e-4 -0.3064,-0.52058 -0.606,-1.15812 -0.4041,-0.86013 -0.7161,-1.33856 -1.2092,-1.8545 -0.8647,-0.90461 -1.4732,-1.203 -2.8198,-1.38252 -1.7901,-0.23864 -2.1,-0.20917 -3.1463,0.29917 -1.0102,0.49082 -1.0745,0.60203 -0.6923,1.19786 0.4716,0.7351 0.7149,1.3908 0.7595,2.04648 0.084,1.2371 -0.455,2.49388 -1.2535,2.92199 -0.4979,0.26695 -1.403,0.2603 -1.85,-0.0136 -0.4864,-0.29793 -0.9468,-0.93329 -0.9468,-1.3065 0,-0.33614 -0.1794,-0.74922 -0.3254,-0.74922 -0.1683,0 -0.6689,1.07362 -0.7983,1.71187 -0.2534,1.25014 0.3231,2.80632 1.51,4.07597 0.7289,0.77971 0.9141,1.1474 0.5779,1.1474 -0.092,0 -0.273,0.20799 -0.4021,0.46219 l -0.2347,0.46219 -0.6071,-0.0762 c -0.7558,-0.0949 -1.1385,0.10399 -1.5649,0.81313 -0.3155,0.52485 -0.4649,0.61049 -0.5727,0.32831 -0.1043,-0.27313 -0.2986,-0.19678 -0.2986,0.11734 0,0.15834 -0.068,0.45252 -0.1504,0.65373 -0.083,0.20122 -0.2108,0.74957 -0.2847,1.21855 -0.3752,2.38306 -0.4742,3.14781 -0.5421,4.1897 l -0.074,1.13611 0.6208,0.6626 c 0.4469,0.47693 0.6629,0.8179 0.7707,1.21681 0.084,0.30882 0.4239,0.93801 0.7688,1.42098 0.7663,1.07304 1.0119,1.56724 0.8566,1.72326 -0.063,0.0632 -0.5061,0.18332 -0.985,0.26698 -0.4789,0.0837 -0.9631,0.23612 -1.076,0.33877 -0.2797,0.25432 -0.2943,0.24964 -0.8635,-0.27753 -0.571,-0.52874 -0.7901,-0.5247 -1.337,0.0247 -0.2573,0.25853 -0.4257,0.32579 -0.8155,0.32579 -0.2702,0 -0.5668,0.0291 -0.659,0.0646 -0.1174,0.0453 -0.2077,-0.0573 -0.3012,-0.34195 z m 0.1109,-41.78116 c 0,-0.0583 -0.1655,-0.22085 -0.3678,-0.36127 -0.2023,-0.14043 -0.4589,-0.34856 -0.5702,-0.46251 -0.1114,-0.11396 -0.2769,-0.2072 -0.3678,-0.2072 -0.3242,0 -0.157,0.32561 0.3722,0.72466 0.518,0.39064 0.9336,0.527 0.9336,0.30632 z m 4.5187,-0.1742 c 0.3357,-0.17439 0.9132,-0.79618 0.9132,-0.98319 0,-0.14039 -0.3914,0.0665 -0.9336,0.49349 -0.2334,0.1838 -0.4244,0.40663 -0.4244,0.49517 0,0.20151 0.047,0.20092 0.4448,-0.005 z"
     id="path1-2" />
</svg>
