<?xml version="1.0" encoding="UTF-8" standalone="no"?>
<svg
   id="a36694c7-9e7e-4fa0-bd34-1ff06c34a584"
   data-name="Layer 1"
   width="1089.86663"
   height="822.50661"
   viewBox="0 0 1089.86663 822.50661"
   version="1.1"
   sodipodi:docname="skill.svg"
   xmlns:inkscape="http://www.inkscape.org/namespaces/inkscape"
   xmlns:sodipodi="http://sodipodi.sourceforge.net/DTD/sodipodi-0.dtd"
   xmlns="http://www.w3.org/2000/svg"
   xmlns:svg="http://www.w3.org/2000/svg">
  <defs
     id="defs20" />
  <sodipodi:namedview
     id="namedview20"
     pagecolor="#ffffff"
     bordercolor="#000000"
     borderopacity="0.25"
     inkscape:showpageshadow="2"
     inkscape:pageopacity="0.0"
     inkscape:pagecheckerboard="0"
     inkscape:deskcolor="#d1d1d1" />
  <title
     id="title1">certificate</title>
  <path
     d="M988.80331,484.3133c0,126.51-74.17,238.43-187.87,306.56-72.9,43.69-162.06,69.38-258.33,69.38-128.25,0-226.08-48.47-299.67-122.72-67.83-68.42-115.06-158.75-146.53-253.22-140.49-421.79,94.2-536.86,446.2-375.94C766.72329,210.84327,988.80331,276.69331,988.80331,484.3133Z"
     transform="translate(-55.06669 -38.74669)"
     fill="#6c63ff"
     id="path1" />
  <path
     d="M800.93331,263.50331v528.37c-72.9,43.69-162.06,69.38-258.33,69.38-128.25,0-226.08-48.47-299.67-122.72v-475.03Z"
     transform="translate(-55.06669 -38.74669)"
     fill="#f2f2f2"
     id="path2" />
  <path
     style="opacity:1;fill:#aa4400;fill-opacity:1;stroke-width:0.838488"
     d="m 861.81189,296.86668 c -10.35958,-1.13548 -19.21298,-3.69185 -21.00611,-5.16714 -0.9393,-0.77281 0.80314,-20.0268 0.62108,-11.92226 -0.14145,6.29673 -1.65768,-19.67281 -1.72278,-19.65354 l -11.28144,3.34014 -3.85352,-21.90017 c -0.99618,-5.66144 0.894,-2.9536 -8.32319,-2.2348 -5.7418,0.44778 4.24707,-22.68441 4.15352,-31.39505 -0.11312,-10.53208 -6.47925,-21.90884 -3.78121,-24.99318 2.39032,-2.73257 23.10955,-11.08794 29.06616,-17.55848 8.54302,-9.28008 18.49158,-11.66745 27.86759,-9.09458 5.16954,1.41857 30.52408,18.17551 30.66934,18.32077 0.14526,0.14525 -0.12166,1.55973 -0.59314,3.14328 -1.31064,4.40196 7.55506,0.12832 5.90146,10.76011 -0.57351,3.68738 3.05671,7.61375 5.93052,14.76186 6.07573,15.11235 -3.73548,34.15597 2.66055,29.09461 2.03742,-1.61227 6.886,-2.99277 10.15772,-3.57145 1.96995,-0.34842 -7.27768,21.03467 -8.46889,23.18284 -0.67878,1.22407 0.84781,2.07225 -0.88715,4.37162 -0.65345,0.86601 -0.80501,4.57417 -2.00096,9.87449 -1.76928,7.84126 0.42661,11.87041 -0.67212,18.91406 l -1.44712,9.27712 -3.77319,1.18173 c -6.70721,2.10064 -28.36813,3.55321 -49.21712,1.26802 z"
     id="path42"
     sodipodi:nodetypes="sssccsssssssssssssssscss" />
  <path
     d="M296.60406,520.9551a349.10769,349.10769,0,0,1,90.1557-16.07316,282.15087,282.15087,0,0,1,45.97047,1.7986,287.56233,287.56233,0,0,1,44.61626,9.55207c14.4206,4.17522,28.64209,8.99849,43.01405,13.33329a401.17806,401.17806,0,0,0,44.45525,10.84819,376.87356,376.87356,0,0,0,45.16986,5.38371c15.00305.87194,30.15309,1.0421,45.11414-.55621a138.0256,138.0256,0,0,0,40.59011-10.28933A123.97053,123.97053,0,0,0,728.70055,513.779q3.67222-3.2781,7.06609-6.84515c1.33469-1.39522-.78353-3.51978-2.12132-2.12132-19.12461,19.99191-44.26195,32.38806-71.527,36.52762-14.853,2.25509-29.98981,2.38592-44.97348,1.80438a370.06082,370.06082,0,0,1-45.71483-4.619A382.03123,382.03123,0,0,1,527.155,528.4477c-14.28794-4.13931-28.38132-8.91171-42.61931-13.21479a320.72782,320.72782,0,0,0-43.87857-10.45407,275.93839,275.93839,0,0,0-45.01855-3.12473A344.20143,344.20143,0,0,0,306.666,514.82967q-5.45484,1.53164-10.85948,3.23259c-1.836.5756-1.05209,3.47271.79752,2.89284Z"
     transform="translate(-55.06669 -38.74669)"
     fill="#3f3d56"
     id="path3" />
  <path
     d="M296.60406,596.9551a349.10769,349.10769,0,0,1,90.1557-16.07316,282.15087,282.15087,0,0,1,45.97047,1.7986,287.56233,287.56233,0,0,1,44.61626,9.55207c14.4206,4.17522,28.64209,8.99849,43.01405,13.33329a401.17806,401.17806,0,0,0,44.45525,10.84819,376.87356,376.87356,0,0,0,45.16986,5.38371c15.00305.87194,30.15309,1.0421,45.11414-.55621a138.0256,138.0256,0,0,0,40.59011-10.28933A123.97053,123.97053,0,0,0,728.70055,589.779q3.67222-3.2781,7.06609-6.84515c1.33469-1.39522-.78353-3.51978-2.12132-2.12132-19.12461,19.99191-44.26195,32.38806-71.527,36.52762-14.853,2.25509-29.98981,2.38592-44.97348,1.80438a370.06082,370.06082,0,0,1-45.71483-4.619A382.03123,382.03123,0,0,1,527.155,604.4477c-14.28794-4.13931-28.38132-8.91171-42.61931-13.21479a320.72782,320.72782,0,0,0-43.87857-10.45407,275.93839,275.93839,0,0,0-45.01855-3.12473A344.20143,344.20143,0,0,0,306.666,590.82967q-5.45484,1.53164-10.85948,3.23259c-1.836.5756-1.05209,3.47271.79752,2.89284Z"
     transform="translate(-55.06669 -38.74669)"
     fill="#3f3d56"
     id="path4" />
  <path
     d="M296.60406,451.9551a349.10769,349.10769,0,0,1,90.1557-16.07316,282.15087,282.15087,0,0,1,45.97047,1.7986,287.56233,287.56233,0,0,1,44.61626,9.55207c14.4206,4.17522,28.64209,8.99849,43.01405,13.33329a401.17806,401.17806,0,0,0,44.45525,10.84819,376.87356,376.87356,0,0,0,45.16986,5.38371c15.00305.87194,30.15309,1.0421,45.11414-.55621a138.0256,138.0256,0,0,0,40.59011-10.28933A123.97053,123.97053,0,0,0,728.70055,444.779q3.67222-3.2781,7.06609-6.84515c1.33469-1.39522-.78353-3.51978-2.12132-2.12132-19.12461,19.99191-44.26195,32.38806-71.527,36.52762-14.853,2.25509-29.98981,2.38592-44.97348,1.80438A370.06082,370.06082,0,0,1,571.43,469.52557,382.03123,382.03123,0,0,1,527.155,459.4477c-14.28794-4.13931-28.38132-8.91171-42.61931-13.21479a320.72782,320.72782,0,0,0-43.87857-10.45407,275.93839,275.93839,0,0,0-45.01855-3.12473A344.20143,344.20143,0,0,0,306.666,445.82967q-5.45484,1.53163-10.85948,3.23259c-1.836.5756-1.05209,3.47271.79752,2.89284Z"
     transform="translate(-55.06669 -38.74669)"
     fill="#3f3d56"
     id="path5" />
  <path
     d="M293.02966,321.49617c7.25838-3.21556,15.5732-2.65483,23.1061-.79035,8.12236,2.01037,15.771,5.50661,23.76662,7.924a82.27145,82.27145,0,0,0,43.97788.83424,81.06329,81.06329,0,0,0,23.03191-9.8719c1.63065-1.025.12677-3.62188-1.51415-2.59041a79.4874,79.4874,0,0,1-42.31964,12.06472,77.64725,77.64725,0,0,1-22.15352-3.262c-7.93732-2.3799-15.52474-5.83513-23.56552-7.88447-8.51912-2.17125-17.65485-2.6421-25.84384.98574-1.76158.7804-.237,3.36618,1.51416,2.59041Z"
     transform="translate(-55.06669 -38.74669)"
     fill="#3f3d56"
     id="path6" />
  <circle
     cx="460.86663"
     cy="696.75661"
     r="46"
     fill="#3f3d56"
     id="circle6" />
  <circle
     cx="212.86663"
     cy="105.75661"
     r="25"
     fill="#f2f2f2"
     id="circle7" />
  <circle
     cx="431.86663"
     cy="176.75661"
     r="17"
     fill="#f2f2f2"
     id="circle8" />
  <circle
     cx="155.86663"
     cy="339.75661"
     r="17"
     fill="#f2f2f2"
     id="circle9" />
  <rect
     x="85.547"
     y="213.46424"
     width="1.8747"
     height="335.24432"
     fill="#3f3d56"
     id="rect9" />
  <ellipse
     cx="86.84593"
     cy="436.55402"
     rx="36.55673"
     ry="83.42433"
     fill="#3f3d56"
     id="ellipse9" />
  <ellipse
     cx="86.84593"
     cy="246.27156"
     rx="36.55673"
     ry="83.42433"
     fill="#3f3d56"
     id="ellipse10" />
  <path
     d="M142.81061,216.86068l-1.796-.53824c.1135-.379,11.13471-38.14721-6.962-62.4607-10.22116-13.73165-27.76036-20.69451-52.13059-20.69451v-1.87471c24.9991,0,43.04588,7.21917,53.6396,21.457C154.21857,177.82509,142.92686,216.47347,142.81061,216.86068Z"
     transform="translate(-55.06669 -38.74669)"
     fill="#3f3d56"
     id="path10" />
  <circle
     cx="26.8554"
     cy="93.48318"
     r="23.4338"
     fill="#3f3d56"
     id="circle10" />
  <path
     d="M825.8065,663.424,808.274,824.72309H929.24832l5.25976-12.27276,7.013,12.27276h113.96133s-8.76625-166.55887-24.54551-171.81863S825.8065,663.424,825.8065,663.424Z"
     transform="translate(-55.06669 -38.74669)"
     fill="#2f2e41"
     id="path11" />
  <path
     d="M925.74182,333.81273s45.11322,7.02643,48.85538-7.00629l23.02792,31.55181,1.75325,315.58523s-187.59788,22.79227-194.61089-14.026,71.88331-327.858,71.88331-327.858l19.86216-1.28572S922.23532,333.81273,925.74182,333.81273Z"
     transform="translate(-55.06669 -38.74669)"
     fill="#d0cde1"
     id="path13" />
  <path
     d="M1022.17064,596.80042s-78.89631-33.31177-80.64956-3.5065,89.41582,50.84429,89.41582,42.078S1022.17064,596.80042,1022.17064,596.80042Z"
     transform="translate(-55.06669 -38.74669)"
     fill="#ffb8b8"
     id="path16"
     style="fill:#aa4400" />
  <path
     d="M829.313,584.52767s91.16907,68.37679,56.104,85.90931-80.64956-61.3638-80.64956-61.3638Z"
     transform="translate(-55.06669 -38.74669)"
     fill="#ffb8b8"
     id="path17"
     style="fill:#aa4400" />
  <path
     style="opacity:0.91629;fill:#ffffff;fill-opacity:1;stroke-width:0.869844"
     d="m 802.97697,640.9214 -5.97791,-0.36566 0.59002,-4.52451 c 0.32452,-2.48848 0.795,-5.36027 1.04553,-6.38174 l 0.45551,-1.85722 3.62762,2.00542 c 17.66609,9.76619 37.75557,2.91934 35.8211,-12.20847 -1.13199,-8.8523 -10.40092,-23.13403 -23.74651,-36.58904 l -6.9573,-7.01435 4.70781,-30.38894 c 12.59852,-81.32339 33.49271,-232.67764 33.63705,-243.66142 l 0.0936,-7.11945 2.21698,0.38911 c 7.08289,1.24312 37.47855,3.84395 44.93807,3.84516 8.24054,10e-4 15.24072,-0.8232 18.8606,-2.22154 1.48473,-0.57355 1.53375,0.34297 0.98538,18.42404 -0.77019,25.39452 1.14888,80.16806 4.88761,139.50099 1.52455,24.19408 6.01865,87.29721 6.37004,89.44372 0.27644,1.68866 0.0247,1.95023 -1.51798,1.57721 -5.63211,-1.36188 -17.20874,-2.35079 -21.58015,-1.84344 -13.39321,1.55445 -18.7443,10.08725 -13.2457,21.1215 4.11017,8.24803 16.96268,17.49487 33.19079,23.87939 6.27137,2.4673 7.17999,3.09541 7.2281,4.99666 0.0303,1.19603 0.91835,11.61352 1.97352,23.14997 l 1.91848,20.97534 -10.88628,1.02658 c -30.74129,2.89892 -46.31715,3.68162 -78.29918,3.93459 -18.89736,0.14946 -37.04889,0.10721 -40.33675,-0.0939 z"
     id="path40" />
  <path
     style="fill:#aa4400;fill-opacity:1;stroke-width:0.838488"
     d="m 994.03104,142.16877 c -10.35958,-1.13548 -15.23786,-3.5972 -15.51665,-3.93674 -0.77189,-0.94006 -5.10748,-9.28994 -6.18129,-15.53857 -0.65096,-3.78798 -2.34398,-8.61635 -1.74637,-11.29062 l -9.94494,-0.54893 -3.85352,-23.988107 c -0.91176,-5.67565 -0.14997,4.35417 -9.88914,-4.84472 -4.18687,-3.95461 5.81302,-20.07449 5.71947,-28.78513 -0.11312,-10.53208 -6.47925,-21.90884 -3.78121,-24.99318 2.39032,-2.73257 23.10955,-11.08794 29.06616,-17.55848 8.54302,-9.2800797 21.53192,-8.3507097 30.90795,-5.7778397 5.1695,1.41857 27.4837,14.8587697 27.629,15.0040297 0.1453,0.14525 -0.1217,1.55973 -0.5931,3.14328 -1.3107,4.40196 7.555,0.12832 5.9014,10.76011 -0.5735,3.68738 3.0567,7.61375 5.9305,14.76186 6.0758,15.11235 -3.7354,34.15597 2.6606,29.09461 2.0374,-1.61227 6.886,-2.99277 10.1577,-3.57145 1.97,-0.34842 -7.2777,21.03467 -8.4689,23.18284 -0.6788,1.22407 0.8478,2.07225 -0.8871,4.371617 -0.6535,0.86601 -0.805,4.57417 -2.001,9.87449 -1.7693,7.84126 0.4266,11.87041 -0.6721,18.91406 l -1.4471,9.27712 -3.7732,1.18173 c -6.7072,2.10064 -28.3682,3.55321 -49.21716,1.26802 z"
     id="path42-1"
     sodipodi:nodetypes="sssscsssssssssssssssscss" />
  <path
     d="m 956.49132,158.01513 c 0.58983,-1.24815 1.8786,-2.01297 3.25676,-1.93273 -28.09345,-1.68046 -57.68462,1.59391 -81.18765,17.0753 -6.58229,4.33573 -12.72923,9.6376 -20.22289,12.081 l 6.08267,4.77011 -7.26763,2.21543 10.69544,6.91263 c -2.19843,2.49944 -5.56815,3.62835 -8.82861,2.95773 4.64818,1.358 8.07046,5.49439 9.80869,10.01416 1.73823,4.51977 2.05052,9.44217 2.34418,14.27575 1.79656,-6.9743 15.75117,-5.97758 22.81637,-12.37009 4.80086,-4.34375 26.25466,-19.35573 33.25183,-17.6504 0.63721,9.46782 1.40826,11.57869 5.35926,25.96562 3.96643,11.70163 3.10491,34.44035 13.10692,28.20603 l 10.06212,-6.27178 c 5.13173,0.18836 -1.17595,14.98658 -1.28122,22.647 -0.0901,6.5591 6.47807,19.37963 9.72456,35.68805 4.79156,24.06992 9.21545,52.05572 34.20352,43.77233 6.93296,-2.29822 48.70086,12.44494 50.04496,9.76783 6.1321,-12.21409 -33.681,-126.7396 -34.2343,-140.3954 -0.5534,-13.6558 -5.55,-27.31832 -14.96294,-37.2275 -6.39033,-6.72714 -15.23132,-7.90529 -21.746,-13.49635 -2.56408,-2.20055 -2.57349,-3.91969 -6.09717,-5.20273 -1.1704,-0.42612 -14.73533,-2.23149 -14.92887,-1.80199 z"
     transform="translate(-55.06669,-38.74669)"
     fill="#2f2e41"
     id="path18"
     sodipodi:nodetypes="ccscccccscsccscssssssssc" />
  <path
     style="opacity:1;fill:#ffffff;stroke-width:3.4852;fill-opacity:1"
     d="m 688.73384,741.0118 c -5.02267,-5.02266 -7.37774,-11.77136 -7.37774,-21.14162 0,-17.41543 11.79754,-78.53126 20.88996,-108.21803 3.8161,-12.45958 6.95035,-25.32732 6.96499,-28.59497 0.0161,-3.58967 -14.11261,-15.90568 -35.69665,-31.11683 -44.8582,-31.6134 -47.74637,-35.06425 -47.84397,-57.16525 -0.0725,-16.42823 2.94727,-22.54887 47.28722,-95.84293 26.05059,-43.0617 49.96776,-80.80304 53.14926,-83.86962 3.1815,-3.06659 27.74129,-11.15217 54.57731,-17.96794 26.83602,-6.81578 51.33714,-13.41567 54.44693,-14.66641 4.21277,-1.69436 6.16074,0.22072 7.64135,7.51235 1.69237,8.33445 -33.876,275.49247 -37.10832,278.72479 -0.62532,0.62532 -4.81459,-2.77771 -9.30948,-7.5623 -4.49489,-4.78458 -10.08815,-8.69925 -12.42948,-8.69925 -2.34133,0 -9.27477,7.81958 -15.40765,17.37684 l -11.15069,17.37685 11.03276,13.93 c 6.06803,7.66151 14.85548,16.93695 19.52768,20.61211 l 8.49491,6.6821 -6.38941,33.20239 c -7.4447,38.68625 -15.66925,51.82147 -44.38641,70.88861 -24.03151,15.95603 -46.1735,19.27819 -56.91257,8.53911 z m 41.3095,-262.66845 -0.10552,-35.72328 -12.04906,20.91119 c -6.62698,11.50115 -12.06868,23.54211 -12.09267,26.75768 -0.0335,4.48918 18.8022,23.53147 23.48147,23.73903 0.47922,0.0213 0.82382,-16.03682 0.76578,-35.68462 z"
     id="path38" />
  <path
     style="opacity:1;fill:#ffffff;fill-opacity:1;stroke-width:3.4852"
     d="M 948.27075,758.90174 C 945.83639,747.23232 937.20447,666.69516 933.8493,624.34733 l -2.44579,-30.86978 11.77029,2.42829 c 6.47367,1.33556 15.47252,3.2859 19.99747,4.33408 6.77265,1.56885 7.91683,0.74359 6.47174,-4.66789 -0.96549,-3.61551 -3.68695,-13.99347 -6.04768,-23.06213 -4.93263,-18.94852 -7.58202,-21.79046 -24.33462,-26.10328 l -12.1982,-3.14032 -4.01312,-53.80831 c -6.21515,-83.33337 -9.36801,-174.92209 -6.64632,-193.07162 2.29419,-15.29879 2.8826,-16.0611 8.4842,-10.99172 3.31047,2.99593 24.44772,13.81795 46.97166,24.04891 l 40.95257,18.60177 20.3134,43.34658 c 40.3485,86.09919 60.3623,151.60916 52.2794,171.12299 -5.4269,13.10167 -24.5933,29.95987 -61.57,54.15527 -16.8042,10.99565 -30.86807,20.09471 -31.25311,20.22014 -0.38504,0.12543 3.12725,18.99449 7.80511,41.9312 4.6778,22.93674 8.5216,50.33283 8.5417,60.88016 l 0.037,19.17698 -23.33432,14.80369 c -27.54187,17.47307 -34.59775,18.45883 -37.35963,5.2194 z m 44.38967,-219.02375 c 8.96728,-3.05548 16.26378,-6.58424 16.21438,-7.8417 -0.416,-10.58929 -20.38412,-77.76179 -21.91822,-73.73283 -2.5712,6.75273 -16.3291,76.16728 -16.3291,82.38743 0,6.03564 2.16834,5.95564 22.03294,-0.8129 z"
     id="path39" />
</svg>
