<?xml version="1.0" encoding="UTF-8" standalone="no"?>
<svg
   xmlns:dc="http://purl.org/dc/elements/1.1/"
   xmlns:cc="http://creativecommons.org/ns#"
   xmlns:rdf="http://www.w3.org/1999/02/22-rdf-syntax-ns#"
   xmlns:svg="http://www.w3.org/2000/svg"
   xmlns="http://www.w3.org/2000/svg"
   xmlns:sodipodi="http://sodipodi.sourceforge.net/DTD/sodipodi-0.dtd"
   xmlns:inkscape="http://www.inkscape.org/namespaces/inkscape"
   data-name="Layer 1"
   width="779.13499"
   height="550.24072"
   viewBox="0 0 779.13499 550.24072"
   version="1.1"
   id="svg2330"
   sodipodi:docname="YumaData.svg"
   inkscape:version="1.0.1 (3bc2e813f5, 2020-09-07)">
  <metadata
     id="metadata2336">
    <rdf:RDF>
      <cc:Work
         rdf:about="">
        <dc:format>image/svg+xml</dc:format>
        <dc:type
           rdf:resource="http://purl.org/dc/dcmitype/StillImage" />
        <dc:title />
      </cc:Work>
    </rdf:RDF>
  </metadata>
  <defs
     id="defs2334">
    <clipPath
       clipPathUnits="userSpaceOnUse"
       id="clipPath2457">
      <g
         inkscape:label="Clip"
         id="use2459"
         transform="matrix(0.95389674,-0.31781186,0.2834415,0.9538967,11.153765,165.2902)">
        <path
           d="m 820.37364,239.52228 c 1.62516,-3.30126 3.29465,-6.84554 2.83793,-10.49668 -0.45672,-3.65114 -4.03735,-7.141 -7.55332,-6.05592 -2.10248,0.64886 -3.69154,2.725 -5.88931,2.83126 -3.024,0.14618 -4.75773,-3.31468 -5.699,-6.19213 l -3.83342,-11.7191 a 31.70821,31.70821 0 0 1 -26.335,5.951 c -3.55922,-0.81376 -7.155,-2.40036 -9.2428,-5.39556 -2.0878,-2.9952 -2.07527,-7.64129 0.78837,-9.9062 1.40412,-1.11055 3.273,-1.5325 4.61484,-2.71753 a 5.17113,5.17113 0 0 0 -4.12923,-8.99869 l 9.6522,-1.20635 -2.87587,-5.20135 c 2.07217,1.63353 4.9562,1.85321 7.55306,1.38563 2.59686,-0.46758 5.04259,-1.53682 7.583,-2.24987 12.19585,-3.42314 26.3699,2.52874 32.4656,13.63276 a 12.35592,12.35592 0 0 1 13.47187,3.89 c 2.58387,3.27949 3.28656,7.65591 3.38667,11.8298 a 51.32416,51.32416 0 0 1 -5.23183,23.77477 19.47726,19.47726 0 0 1 -4.39512,6.23455 8.79662,8.79662 0 0 1 -7.06107,2.3092"
           fill="#2f2e41"
           id="path45"
           transform="translate(-281.1258,-178.58588)" />
        <path
           d="m 502.80357,22.515538 c -3.90233,5.231559 -0.3044,12.122267 4.50279,16.81132 4.80719,4.689054 11.00582,8.804982 13.1521,14.689084 1.9243,5.275546 0.17391,10.965127 -2.08919,16.148039 -2.26311,5.182911 -5.07684,10.350434 -5.31013,15.857065 -0.2333,5.50663 2.92036,11.587775 9.19709,13.446746 6.441,1.907628 14.05572,-1.090212 20.25958,1.294468 8.08075,3.10614 9.91188,13.85989 18.72135,14.97475 5.42148,0.6861 10.44598,-3.19813 11.96117,-7.55415 1.5152,-4.35603 0.42695,-9.005504 -0.66834,-13.446625 -3.00099,-12.168188 -6.00198,-24.336362 -9.00297,-36.504551 -2.49699,-10.12461 -4.99399,-20.249221 -7.49097,-30.373832 -1.49085,-6.044946 -3.25974,-12.511053 -8.75738,-16.684699 -6.71778,-5.0999253 -16.84358,-5.221162 -25.95831,-4.9155219 -8.37431,0.2808095 -17.08663,0.7543028 -24.37703,4.1710279 -7.29039,3.416725 -12.64526,10.679413 -10.12252,17.284247 2.35624,-4.64857 9.39603,-7.256363 15.16315,-5.616979"
           fill="#2f2e41"
           id="path47"
           style="stroke-width:1.17534" />
      </g>
    </clipPath>
  </defs>
  <sodipodi:namedview
     pagecolor="#ffffff"
     bordercolor="#666666"
     borderopacity="1"
     objecttolerance="10"
     gridtolerance="10"
     guidetolerance="10"
     inkscape:pageopacity="0"
     inkscape:pageshadow="2"
     inkscape:window-width="1920"
     inkscape:window-height="1017"
     id="namedview2332"
     showgrid="false"
     inkscape:zoom="0.94567085"
     inkscape:cx="299.62208"
     inkscape:cy="171.5116"
     inkscape:window-x="1912"
     inkscape:window-y="-8"
     inkscape:window-maximized="1"
     inkscape:current-layer="svg2330"
     inkscape:document-rotation="0" />
  <ellipse
     style="fill:#784421;fill-opacity:1"
     id="path2377"
     ry="25.643171"
     rx="25.378809"
     cy="154.42232"
     cx="230.22527" />
  <path
     d="M 745.67114,472 H 460.83786 A 25.49265,25.49265 0 0 1 435.37401,446.53615 V 33.46385 A 25.49264,25.49264 0 0 1 460.83786,8 h 284.83328 a 25.49264,25.49264 0 0 1 25.46384,25.46385 v 413.0723 A 25.49264,25.49264 0 0 1 745.67114,472 Z"
     fill="#e6e6e6"
     id="path2266" />
  <circle
     cx="610.1714"
     cy="7.79832"
     r="2.1662"
     fill="#fff"
     id="circle2270" />
  <path
     d="M 712.71848,194.8792 H 482.29682 a 0.72116,0.72116 0 0 1 -0.72112,-0.72112 V 83.716976 a 0.721115,0.721115 0 0 1 1.44223,0 V 193.43698 h 229.70055 a 0.72112,0.72112 0 0 1 0,1.44223 z"
     fill="#3f3d56"
     id="path2272" />
  <path
     d="m 569.74697,186.94694 h -20.95775 a 2.143,2.143 0 0 1 -2.14063,-2.14046 v -56.29272 a 2.143,2.143 0 0 1 2.14063,-2.14045 h 20.95775 a 2.143,2.143 0 0 1 2.14063,2.14045 v 56.29272 a 2.143,2.143 0 0 1 -2.14063,2.14046 z"
     fill="#6c63ff"
     id="path2276" />
  <path
     d="m 646.18512,186.94694 h -20.95775 a 2.09618,2.09618 0 0 1 -2.14063,-2.04349 v -67.30337 a 2.09617,2.09617 0 0 1 2.14063,-2.04349 h 20.95775 a 2.09617,2.09617 0 0 1 2.14063,2.04349 v 67.30337 a 2.09618,2.09618 0 0 1 -2.14063,2.04349 z"
     fill="#6c63ff"
     id="path2280" />
  <circle
     cx="521.04907"
     cy="140.79559"
     r="4.3266902"
     fill="#3f3d56"
     id="circle2284" />
  <circle
     cx="559.26813"
     cy="112.67213"
     r="4.3266902"
     fill="#3f3d56"
     id="circle2286" />
  <circle
     cx="597.48718"
     cy="140.79559"
     r="4.3266902"
     fill="#3f3d56"
     id="circle2288" />
  <circle
     cx="635.7063"
     cy="98.970947"
     r="4.3266902"
     fill="#3f3d56"
     id="circle2290" />
  <circle
     cx="673.92535"
     cy="83.10643"
     r="4.3266902"
     fill="#3f3d56"
     id="circle2292" />
  <polygon
     points="573.015,208.241 535.228,236.543 534.363,235.389 573.015,206.438 611.143,234.997 649.031,193.534 649.184,193.472 687.403,178.073 687.942,179.411 649.875,194.749 611.325,236.935 "
     fill="#3f3d56"
     id="polygon2294"
     transform="translate(-13.746855,-95.170534)" />
  <polygon
     points="191.627 537.085 203.887 537.085 209.72 489.797 191.625 489.798 191.627 537.085"
     fill="#9f616a"
     id="polygon2298" />
  <path
     d="M398.93258,707.96221l24.144-.001h.001a15.3873,15.3873,0,0,1,15.38647,15.38623v.5l-39.53076.00146Z"
     transform="translate(-210.43251 -174.87964)"
     fill="#2f2e41"
     id="path2300" />
  <polygon
     points="145.367 527.336 157.145 530.74 175.877 486.93 158.494 481.907 145.367 527.336"
     fill="#9f616a"
     id="polygon2302" />
  <path
     d="M353.90611,697.50228l23.19508,6.70245.00094.00027a15.38729,15.38729,0,0,1,10.50969,19.05325l-.13882.48034-37.977-10.974Z"
     transform="translate(-210.43251 -174.87964)"
     fill="#2f2e41"
     id="path2304" />
  <path
     d="M387.0043,506.62745s-4.36065,12.16644,2.51849,28.76629l5.30827,68.36757,1.57088,97.23228h22.35039l13.52613-99.12205,8.12348-89.87795Z"
     transform="translate(-210.43251 -174.87964)"
     fill="#2f2e41"
     id="path2306" />
  <path
     d="M374.43342,506.62745s-4.36066,12.16644,2.51849,28.76629l5.30826,68.36757L355.83106,696.365h22.35039l41.52613-94.49349,8.12348-89.87795Z"
     transform="translate(-210.43251 -174.87964)"
     fill="#2f2e41"
     id="path2308" />
  <path
     d="M443.28477,385.00087l-4.97733-23.12665-25.3443-14.38992-5.13925,7.195s-36.26449,9.52971-31.87866,51.172,2.38583,61.64229,2.38583,61.64229l-10,46s3.07821.52876,73.72947,12.87144l3-100Z"
     transform="translate(-210.43251 -174.87964)"
     fill="#cbcbcb"
     id="path2312" />
  <polygon
     points="208.266 435.17 185.251 481.659 185.251 494.985 208.266 435.17"
     opacity="0.1"
     id="polygon2314" />
  <path
     d="M533.87254,501.6117c.03629.00039.07232-.00038.10861-.0023a72.88485,72.88485,0,0,0,1.63072-145.467,1.66268,1.66268,0,0,0-1.2584.43618,1.64558,1.64558,0,0,0-.53753,1.2048l-1.59355,142.145a1.66856,1.66856,0,0,0,1.65015,1.68331Z"
     transform="translate(-210.43251 -174.87964)"
     fill="#3f3d56"
     id="path2318" />
  <path
     d="M526.47146,355.56136a2.15453,2.15453,0,0,1,1.46424.59838,2.11709,2.11709,0,0,1,.65725,1.56556l-.68791,61.36918a2.13689,2.13689,0,0,1-3.66432,1.47006L481.5392,376.89477a2.14134,2.14134,0,0,1,.03578-3.02811q.03872-.03771.07922-.0735A73.51556,73.51556,0,0,1,526.33883,355.564C526.38292,355.56174,526.42738,355.56094,526.47146,355.56136Z"
     transform="translate(-210.43251 -174.87964)"
     fill="#6c63ff"
     id="path2322" />
  <path
     d="M378.86351,441.83085,377.6179,380.198a16.32125,16.32125,0,1,1,32.63916-.33008v45.043Z"
     transform="translate(-210.43251 -174.87964)"
     fill="#cbcbcb"
     id="path2326" />
  <path
     d="M592.43251,724.87964h-381a1,1,0,1,1,0-2h381a1,1,0,0,1,0,2Z"
     transform="translate(-210.43251 -174.87964)"
     fill="#cbcbcb"
     id="path2328" />
  <path
     style="fill:#ff80e5;fill-opacity:1;stroke-width:0.346206"
     d="m 311.1515,324.81741 c -4.71904,-0.5661 -11.17698,-2.13455 -16.23192,-3.94229 -13.73843,-4.91307 -26.45036,-14.55569 -34.89587,-26.47018 -8.51088,-12.00672 -12.91823,-25.14671 -13.37035,-39.86217 -0.5461,-17.77503 4.64545,-33.52186 15.65465,-47.48311 2.51216,-3.18577 3.38818,-3.92228 4.37969,-3.68231 0.59314,0.14355 49.79706,49.77324 50.53896,50.97625 0.18364,0.29777 0.14198,15.04348 -0.0989,35.00389 -0.46908,38.86827 -0.18365,35.73166 -3.24307,35.63933 -0.90947,-0.0274 -2.13941,-0.10827 -2.73318,-0.17941 z"
     id="path2365"
     inkscape:transform-center-x="-48.222007"
     inkscape:transform-center-y="-21.982146" />
  <path
     d="M460.06053,427.365a9.97532,9.97532,0,0,0-7.666,3.58362l-44.80957-1.40076-1.7539-7.55432-23.18946,11.31628,3,20.68915,68.29029-8.7439a9.99612,9.99612,0,1,0,6.12866-17.89007Z"
     transform="translate(-210.43251 -174.87964)"
     fill="#9f616a"
     id="path2324"
     style="fill:#784421;fill-opacity:1" />
  <path
     style="fill:#3f3d56;fill-opacity:1;stroke-width:0.264363"
     d="m 586.71978,185.12508 -0.5748,-0.61185 v -15.2499 c 0,-14.89742 0.0122,-15.26213 0.52872,-15.77863 0.51233,-0.51233 0.88121,-0.52872 11.89632,-0.52872 11.01511,0 11.38398,0.0164 11.89631,0.52872 0.51654,0.51653 0.52873,0.88121 0.52873,15.81567 v 15.28695 l -0.61185,0.57481 c -0.6084,0.57156 -0.67538,0.57481 -11.85024,0.57481 h -11.23838 z"
     id="path2367" />
  <path
     style="fill:#ff80e5;fill-opacity:1;stroke-width:0.264363"
     d="m 661.79876,186.18253 -0.5748,-0.61185 v -44.03614 c 0,-42.963824 0.0123,-44.051334 0.50536,-44.660244 l 0.50537,-0.6241 h 11.41431 11.4143 l 0.50537,0.6241 c 0.49307,0.60891 0.50537,1.69699 0.50537,44.697294 v 44.07318 l -0.61185,0.57481 c -0.6084,0.57156 -0.67538,0.57481 -11.85024,0.57481 h -11.23838 z"
     id="path2369" />
  <path
     style="fill:#ff80e5;fill-opacity:1;stroke-width:0.264363"
     d="m 508.4196,185.65381 -0.57481,-0.61185 v -15.2499 c 0,-14.89742 0.0122,-15.26213 0.52873,-15.77863 0.51233,-0.51233 0.88121,-0.52872 11.89631,-0.52872 11.01511,0 11.38399,0.0164 11.89632,0.52872 0.51653,0.51653 0.52873,0.88121 0.52873,15.81567 v 15.28695 l -0.61186,0.57481 c -0.6084,0.57156 -0.67537,0.57481 -11.85023,0.57481 h -11.23838 z"
     id="path2371" />
  <path
     style="fill:#784421;fill-opacity:1;stroke-width:0.132181"
     d="m 234.64627,247.73108 c -0.0371,-0.20188 -0.88219,-18.55776 -0.85568,-18.58609 0.0483,-0.0516 13.63304,0.35464 14.97403,0.44778 1.04725,0.0727 1.0905,0.0885 1.0905,0.39828 0,0.1774 -0.26235,1.16837 -0.58299,2.20217 -1.2324,3.97339 -2.30606,9.21633 -2.66485,13.01307 -0.089,0.94205 -0.0961,0.95648 -0.50308,1.02649 -0.22704,0.0391 -2.73257,0.3689 -5.56786,0.73297 -2.83529,0.36408 -5.31865,0.69501 -5.51857,0.73542 -0.19993,0.0404 -0.3671,0.0539 -0.3715,0.0299 z"
     id="path2415" />
  <path
     d="m 203.09081,159.84746 c -0.54982,-3.09725 -1.07586,-6.40227 0.23988,-9.22246 1.31574,-2.82019 5.25675,-4.6715 7.98236,-2.85274 1.62986,1.08758 2.45957,3.18768 4.30837,3.86351 2.54383,0.92988 4.90121,-1.39402 6.43429,-3.46049 l 6.24371,-8.41622 a 28.370118,26.792164 17.465714 0 0 20.96708,11.86849 c 3.24408,0.29989 6.71535,-0.0133 9.25682,-1.8668 2.54148,-1.85349 3.70904,-5.60163 1.83938,-8.19615 -0.91674,-1.27217 -2.40477,-2.11413 -3.24948,-3.4296 a 4.6267376,4.3693971 17.465714 0 1 5.80629,-6.14413 l -7.93198,-3.56431 3.77355,-3.42003 c -2.18281,0.76018 -4.69997,0.16277 -6.79774,-0.91146 -2.09778,-1.07423 -3.91399,-2.59281 -5.90133,-3.84973 -9.54074,-6.03412 -23.14734,-5.04315 -31.16587,2.26981 a 11.055146,10.440256 17.465714 0 0 -12.48442,-0.48236 c -3.03695,1.94942 -4.74655,5.28813 -5.8905,8.62542 a 45.920992,43.366853 17.465714 0 0 -1.56409,20.56752 17.426785,16.457502 17.465714 0 0 2.17003,6.20533 7.8705529,7.4327905 17.465714 0 0 5.44082,3.75739"
     fill="#2f2e41"
     id="path238"
     style="stroke-width:0.869486" />
  <path
     d="m 243.9387,138.66676 c 2.0038,5.26458 -2.81444,9.85234 -8.10641,12.34082 -5.29197,2.48849 -11.62615,4.14137 -14.95017,8.30763 -2.98023,3.73536 -2.92921,8.79124 -2.3121,13.57642 0.61711,4.78518 1.70806,9.70582 0.51067,14.20683 -1.19737,4.50102 -5.43113,8.55557 -11.2596,8.36837 -5.98101,-0.1921 -11.71973,-4.65322 -17.61933,-4.39713 -7.68444,0.33358 -11.97444,8.50942 -19.77583,7.04232 -4.80109,-0.90288 -8.10433,-5.38285 -8.29281,-9.30071 -0.18849,-3.91787 1.91942,-7.37313 3.9805,-10.65857 5.64715,-9.00173 11.2943,-18.00345 16.94144,-27.00518 4.69875,-7.48994 9.39749,-14.97989 14.09623,-22.46983 2.80541,-4.4719 5.95493,-9.2086 11.70548,-11.09625 7.0268,-2.30658 15.69967,0.31486 23.40135,3.00887 7.07605,2.47515 14.39172,5.19638 19.7474,9.90803 5.35568,4.71164 8.08409,12.00339 4.256,16.64946 -0.83211,-4.37951 -6.17905,-8.37185 -11.51689,-8.59919"
     fill="#2f2e41"
     id="path4005"
     style="stroke-width:1.02194" />
</svg>
